<svg width="158" height="158" xmlns="http://www.w3.org/2000/svg" xmlns:xlink="http://www.w3.org/1999/xlink"><defs><linearGradient x1="50%" y1="0%" x2="50%" y2="5%" id="c"><stop stop-color="#FFF" offset="0%"/><stop stop-color="#FFF" stop-opacity="0" offset="100%"/></linearGradient><circle id="b" cx="56" cy="56" r="56"/><filter x="-35.3%" y="-26.3%" width="170.5%" height="170.5%" filterUnits="objectBoundingBox" id="a"><feMorphology radius="2" operator="dilate" in="SourceAlpha" result="shadowSpreadOuter1"/><feOffset dy="10" in="shadowSpreadOuter1" result="shadowOffsetOuter1"/><feGaussianBlur stdDeviation="9.5" in="shadowOffsetOuter1" result="shadowBlurOuter1"/><feColorMatrix values="0 0 0 0 0 0 0 0 0 0 0 0 0 0 0 0 0 0 0.430395154 0" in="shadowBlurOuter1"/></filter><filter x="-33.9%" y="-25%" width="167.9%" height="167.9%" filterUnits="objectBoundingBox" id="d"><feGaussianBlur stdDeviation="15" in="SourceAlpha" result="shadowBlurInner1"/><feOffset in="shadowBlurInner1" result="shadowOffsetInner1"/><feComposite in="shadowOffsetInner1" in2="SourceAlpha" operator="arithmetic" k2="-1" k3="1" result="shadowInnerInner1"/><feColorMatrix values="0 0 0 0 0 0 0 0 0 0 0 0 0 0 0 0 0 0 0.04 0" in="shadowInnerInner1" result="shadowMatrixInner1"/><feOffset dy="1" in="SourceAlpha" result="shadowOffsetInner2"/><feComposite in="shadowOffsetInner2" in2="SourceAlpha" operator="arithmetic" k2="-1" k3="1" result="shadowInnerInner2"/><feColorMatrix values="0 0 0 0 1 0 0 0 0 1 0 0 0 0 1 0 0 0 1 0" in="shadowInnerInner2" result="shadowMatrixInner2"/><feMorphology radius="1" in="SourceAlpha" result="shadowSpreadInner3"/><feOffset in="shadowSpreadInner3" result="shadowOffsetInner3"/><feComposite in="shadowOffsetInner3" in2="SourceAlpha" operator="arithmetic" k2="-1" k3="1" result="shadowInnerInner3"/><feColorMatrix values="0 0 0 0 1 0 0 0 0 1 0 0 0 0 1 0 0 0 0.4 0" in="shadowInnerInner3" result="shadowMatrixInner3"/><feMerge><feMergeNode in="shadowMatrixInner1"/><feMergeNode in="shadowMatrixInner2"/><feMergeNode in="shadowMatrixInner3"/></feMerge></filter><linearGradient x1="50.009%" y1=".113%" x2="50.009%" y2="100.043%" id="e"><stop stop-color="#D700D0" offset="0%"/><stop stop-color="#0012B9" offset="99.87%"/></linearGradient><linearGradient x1="49.976%" y1=".019%" x2="49.976%" y2="99.952%" id="f"><stop stop-color="#D700D0" offset="0%"/><stop stop-color="#0012B9" offset="99.87%"/></linearGradient></defs><g transform="translate(23 13)" fill="none" fill-rule="evenodd"><use fill="#000" filter="url(#a)" xlink:href="#b"/><use fill="#FFF" xlink:href="#b"/><use fill="url(#c)" xlink:href="#b"/><use fill="#000" filter="url(#d)" xlink:href="#b"/><g fill-rule="nonzero"><path fill="#FFF" d="M43.372 73.405l9.644-4.455 10.14 4.455 10.056-4.455 10.304 4.455V26.462H43.372z"/><path d="M15.003 55.193V.742h45.915v54.285l-13.19-5.776-10.056 4.538-10.14-4.455-12.53 5.858zm12.447-12.21l10.222 4.537 10.056-4.538 7.42 3.218V6.6H20.772v39.517l6.677-3.134z" fill="url(#e)" transform="translate(25.484 22.75)"/><path fill="#FFF" d="M29.029 83.635l9.644-4.538 10.14 4.538 10.056-4.538 10.304 4.538V36.61H29.03z"/><path d="M.66 65.422v-54.45h45.914v54.285l-13.189-5.775-10.057 4.538-10.139-4.537-12.53 5.94zm12.447-12.21l10.221 4.538 10.057-4.538 7.42 3.218V16.747H6.43v39.518l6.677-3.053z" fill="url(#f)" transform="translate(25.484 22.75)"/><path d="M59.941 53.77H38.179c-1.567 0-2.886-1.32-2.886-2.887 0-1.568 1.32-2.888 2.886-2.888h21.762c1.566 0 2.885 1.32 2.885 2.887a2.868 2.868 0 0 1-2.885 2.888z" fill="#A106C8"/><path d="M59.941 66.145H38.179c-1.567 0-2.886-1.32-2.886-2.888 0-1.567 1.32-2.887 2.886-2.887h21.762c1.566 0 2.885 1.32 2.885 2.888a2.868 2.868 0 0 1-2.885 2.887z" fill="#6B09C4"/></g></g></svg>