<svg version="1" xmlns="http://www.w3.org/2000/svg" width="540" height="540" viewBox="0 0 405 405" preserveAspectRatio="xMidYMid meet"><path d="M103.5 1c-.2.3-.3 14.4-.3 31.2 0 16.9-.3 31.1-.5 31.5-.3.5-20.2.8-44.2.8-25.8 0-43.9.4-44.2.9-.5.7-.8 335.1-.4 338.8.1.4 6.5-2.4 14.4-6.1 46.4-22.2 51.7-24.7 58.2-27.6l5.8-2.7 9.6 4.3c5.3 2.3 13.2 5.9 17.6 7.9 4.4 2 14.3 6.5 22 9.9l14 6.2 12-5.4c6.6-3 20.7-9.3 31.4-14.1l19.3-8.7 7.7 3.2c4.2 1.7 9.9 4.2 12.6 5.4 9.4 4.3 14.1 6.3 23.5 10.4 5.2 2.2 16 6.9 24 10.4l14.5 6.5.5-48.5.5-48.5 3.5-1.4c3.5-1.4 3.7-1.3 44.3 16.5 22.4 9.8 40.9 17.6 41.1 17.2.2-.3.4-76.7.4-169.6V.5H247.3c-78.9 0-143.6.2-143.8.5z" fill="#000"/></svg>