<svg width="114" height="48" xmlns="http://www.w3.org/2000/svg" xmlns:xlink="http://www.w3.org/1999/xlink"><defs><path d="M70.57 0c-2.043.152-3.48 1.365-4.615 2.882l-3.86 9.175c-.907-.228-2.042-.228-3.253 0-2.496.607-4.312 2.199-4.01 3.564.303 1.365 2.648 2.047 5.145 1.44l-.151.456C56.573 17.668 54 20.398 54 23.735v17.592h5.145v2.35c0 2.351 1.892 4.323 4.313 4.323 2.345 0 4.312-1.972 4.312-4.322v-2.351h32.46v2.35c0 2.351 1.967 4.323 4.312 4.323 2.421 0 4.313-1.972 4.313-4.322v-2.351H114V23.735c0-3.337-2.573-6.067-5.826-6.218l-.151-.455c2.497.606 4.842-.076 5.145-1.441.302-1.365-1.514-2.957-4.01-3.564-1.211-.228-2.346-.228-3.254 0l-3.859-9.175C100.91 1.365 99.55.152 97.43 0H70.57zm3.037 33.882c-.468 0-.857-.427-.857-.94 0-.514.39-.942.857-.942h22.661c.468 0 .857.428.857.941 0 .514-.39.941-.857.941H73.607zm0-4.706c-.468 0-.857-.427-.857-.94 0-.514.39-.942.857-.942h22.661c.468 0 .857.428.857.941 0 .514-.39.941-.857.941H73.607zm0-3.764c-.468 0-.857-.428-.857-.941 0-.514.39-.942.857-.942h22.661c.468 0 .857.428.857.942 0 .513-.39.94-.857.94H73.607zM66.187 16l4.02-10.104c.911-1.105 2.049-2.052 3.642-2.131h21.164c1.669.079 2.806 1.026 3.717 2.131L102.75 16H66.187zm38.399 6.588a3.714 3.714 0 0 0-3.711 3.725c0 2.14 1.658 3.805 3.71 3.805a3.798 3.798 0 0 0 3.79-3.805c0-2.06-1.737-3.725-3.79-3.725zm-41.211 0c2.074 0 3.75 1.665 3.75 3.725 0 2.14-1.676 3.805-3.75 3.805s-3.75-1.665-3.75-3.805c0-2.06 1.676-3.725 3.75-3.725z" id="a"/></defs><g fill="#0012B9" fill-rule="evenodd"><circle cx="94" cy="11" r="4"/><g fill-rule="nonzero"><path d="M22.844 20.887c-.402-1.066-1.51-1.65-2.577-1.357-.342.094-.676.21-.998.323-.1.034-.198.07-.297.103-1.307.446-2.334.183-3.139-.806a87.98 87.98 0 0 1-2.362-3.037c-1.211-1.623-2.771-2.317-4.635-2.061-1.913.262-3.845 1.79-3.836 4.203.007 1.928.007 3.889.006 5.786l.001 3.847c.002 1.153.418 2.11 1.235 2.845.93.836 2.05 1.261 3.329 1.265 1.005.003 2.027 0 3.015-.004l1.404-.004h1.595l.043.378.216 1.905.24 2.15c.195 1.742.396 3.544.607 5.317.123 1.028.72 1.782 1.68 2.12a2.443 2.443 0 0 0 2.326-.38 2.493 2.493 0 0 0 .956-2.137c-.051-.92-.163-1.845-.27-2.738a91.867 91.867 0 0 1-.12-1.024L21.09 36c-.246-2.223-.5-4.522-.763-6.781-.17-1.469-1.985-2.387-3.44-2.4a186.93 186.93 0 0 0-2.006-.002l-.801.001v-3.326c.41.256.835.512 1.297.699 2.473 1 4.754.249 6.466-.516.97-.437 1.42-1.687 1.002-2.789zM6.001 8.45c.056-2.526 2.097-4.51 4.574-4.449 2.547.065 4.485 2.092 4.425 4.631-.06 2.478-2.115 4.426-4.607 4.368-2.47-.06-4.446-2.107-4.392-4.55z"/><path d="M14.208 34.267c-3.908-2.628-7.377-2.474-9.6-1.88-.373.1-.723.213-1.05.337v-16.93c0-.99-.796-1.794-1.779-1.794C.797 14 0 14.803 0 15.794V35.76a1.8 1.8 0 0 0 1.047 1.65c.236.105.484.156.73.156.424 0 .841-.154 1.171-.454.118-.1 1.138-.929 2.772-1.306v5.605H4.64c-.983 0-1.78.803-1.78 1.794 0 .99.797 1.795 1.78 1.795h5.72c.982 0 1.779-.803 1.779-1.794 0-.99-.797-1.794-1.78-1.794H9.28v-5.536c.919.242 1.91.674 2.953 1.377.817.55 1.923.327 2.469-.497a1.804 1.804 0 0 0-.493-2.489zm26.177-16.796l-3.727-3.562 1.761-5.295c.351-1.056-.26-2.184-1.364-2.52-1.105-.335-2.285.25-2.636 1.305l-4.32 12.988c-.351 1.056.26 2.183 1.365 2.518.211.065.425.095.636.095.89 0 1.717-.545 2-1.399l1.126-3.387 1.576 1.506v2.969H41v-3.8a1.96 1.96 0 0 0-.615-1.418zM46.488 25H23.511c-.834 0-1.511.696-1.511 1.556 0 .859.676 1.556 1.51 1.556h1.772v16.332c0 .859.676 1.556 1.51 1.556.835 0 1.511-.696 1.511-1.556v-.246h13.394v.246c0 .859.676 1.556 1.51 1.556.835 0 1.511-.696 1.511-1.556V28.111h1.771c.834 0 1.511-.696 1.511-1.556-.002-.859-.678-1.555-1.512-1.555z"/></g><use xlink:href="#a"/></g></svg>