<svg width="149" height="142" viewBox="0 0 149 142" xmlns="http://www.w3.org/2000/svg"><title>april-calendar</title><g fill="#FFF" fill-rule="evenodd"><path d="M8 41a3 3 0 0 0-3 3v90a3 3 0 0 0 3 3h133a3 3 0 0 0 3-3V44a3 3 0 0 0-3-3H8zm0-5h133a8 8 0 0 1 8 8v90a8 8 0 0 1-8 8H8a8 8 0 0 1-8-8V44a8 8 0 0 1 8-8z" fill-rule="nonzero"/><path d="M23.086 63.29c.096.216.144.408.144.576 0 .336-.135.621-.405.855-.27.234-.579.351-.927.351a1.195 1.195 0 0 1-1.116-.756l-.954-2.124h-6.102l-.954 2.124a1.215 1.215 0 0 1-.459.567 1.199 1.199 0 0 1-.657.189c-.348 0-.66-.117-.936-.351-.276-.234-.414-.519-.414-.855 0-.168.048-.36.144-.576l4.86-10.206c.132-.288.33-.507.594-.657.264-.15.546-.225.846-.225.312 0 .6.078.864.234.264.156.468.372.612.648l4.86 10.206zm-8.406-3.222h4.194l-2.088-4.68-2.106 4.68zm15.354-4.122c.756 0 1.431.195 2.025.585.594.39 1.056.936 1.386 1.638.33.702.495 1.509.495 2.421 0 .912-.165 1.713-.495 2.403-.33.69-.789 1.221-1.377 1.593-.588.372-1.266.558-2.034.558-.6 0-1.143-.123-1.629-.369a2.686 2.686 0 0 1-1.125-1.035v3.402c0 .36-.12.648-.36.864-.24.216-.558.324-.954.324-.42 0-.759-.114-1.017-.342-.258-.228-.387-.528-.387-.9V57.26c0-.384.123-.693.369-.927.246-.234.573-.351.981-.351.408 0 .732.117.972.351.24.234.36.543.36.927v.144a2.755 2.755 0 0 1 1.134-1.071 3.511 3.511 0 0 1 1.656-.387zm-.792 7.128c.636 0 1.128-.213 1.476-.639.348-.426.522-1.041.522-1.845 0-.816-.174-1.449-.522-1.899-.348-.45-.84-.675-1.476-.675s-1.128.219-1.476.657c-.348.438-.522 1.065-.522 1.881 0 .804.174 1.425.522 1.863.348.438.84.657 1.476.657zm11.628-7.092c.36-.024.645.057.855.243.21.186.315.465.315.837 0 .396-.096.69-.288.882-.192.192-.534.312-1.026.36l-.54.054c-.66.072-1.137.288-1.431.648-.294.36-.441.822-.441 1.386v3.438c0 .42-.129.738-.387.954-.258.216-.579.324-.963.324-.396 0-.723-.108-.981-.324-.258-.216-.387-.534-.387-.954v-6.606c0-.396.132-.702.396-.918.264-.216.582-.324.954-.324.36 0 .66.105.9.315.24.21.36.501.36.873v.486c.216-.516.543-.912.981-1.188A3.041 3.041 0 0 1 40.618 56l.252-.018zm3.312 9.126c-.396 0-.723-.108-.981-.324-.258-.216-.387-.534-.387-.954v-6.57c0-.42.132-.738.396-.954.264-.216.588-.324.972-.324s.705.108.963.324c.258.216.387.534.387.954v6.57c0 .42-.129.738-.387.954-.258.216-.579.324-.963.324zm0-10.566c-.48 0-.858-.123-1.134-.369-.276-.246-.414-.579-.414-.999 0-.42.138-.75.414-.99.276-.24.654-.36 1.134-.36.468 0 .843.123 1.125.369.282.246.423.573.423.981 0 .42-.138.753-.414.999-.276.246-.654.369-1.134.369zm4.806 10.566c-.396 0-.723-.108-.981-.324-.258-.216-.387-.534-.387-.954V53.498c0-.42.129-.738.387-.954.258-.216.585-.324.981-.324.384 0 .705.108.963.324.258.216.387.534.387.954V63.83c0 .42-.129.738-.387.954-.258.216-.579.324-.963.324zM18.936 85.224c.235.245.352.512.352.8 0 .288-.11.541-.328.76a1.043 1.043 0 0 1-.76.328c-.288 0-.555-.128-.8-.384l-2.08-2.24-2.064 2.24c-.245.256-.512.384-.8.384a1.06 1.06 0 0 1-.776-.328 1.06 1.06 0 0 1-.328-.776c0-.277.117-.539.352-.784l2.16-2.256-2.016-2.096c-.235-.245-.352-.507-.352-.784 0-.299.11-.555.328-.768.219-.213.472-.32.76-.32.299 0 .57.128.816.384l1.92 2.048 1.936-2.048c.245-.256.517-.384.816-.384.288 0 .541.107.76.32.219.213.328.47.328.768 0 .277-.117.539-.352.784l-2.032 2.096 2.16 2.256zm19.104 0c.235.245.352.512.352.8 0 .288-.11.541-.328.76a1.043 1.043 0 0 1-.76.328c-.288 0-.555-.128-.8-.384l-2.08-2.24-2.064 2.24c-.245.256-.512.384-.8.384a1.06 1.06 0 0 1-.776-.328 1.06 1.06 0 0 1-.328-.776c0-.277.117-.539.352-.784l2.16-2.256-2.016-2.096c-.235-.245-.352-.507-.352-.784 0-.299.11-.555.328-.768.219-.213.472-.32.76-.32.299 0 .57.128.816.384l1.92 2.048 1.936-2.048c.245-.256.517-.384.816-.384.288 0 .541.107.76.32.219.213.328.47.328.768 0 .277-.117.539-.352.784l-2.032 2.096 2.16 2.256zm19.104 0c.235.245.352.512.352.8 0 .288-.11.541-.328.76a1.043 1.043 0 0 1-.76.328c-.288 0-.555-.128-.8-.384l-2.08-2.24-2.064 2.24c-.245.256-.512.384-.8.384a1.06 1.06 0 0 1-.776-.328 1.06 1.06 0 0 1-.328-.776c0-.277.117-.539.352-.784l2.16-2.256-2.016-2.096c-.235-.245-.352-.507-.352-.784 0-.299.11-.555.328-.768.219-.213.472-.32.76-.32.299 0 .57.128.816.384l1.92 2.048 1.936-2.048c.245-.256.517-.384.816-.384.288 0 .541.107.76.32.219.213.328.47.328.768 0 .277-.117.539-.352.784l-2.032 2.096 2.16 2.256zm19.104 0c.235.245.352.512.352.8 0 .288-.11.541-.328.76a1.043 1.043 0 0 1-.76.328c-.288 0-.555-.128-.8-.384l-2.08-2.24-2.064 2.24c-.245.256-.512.384-.8.384a1.06 1.06 0 0 1-.776-.328 1.06 1.06 0 0 1-.328-.776c0-.277.117-.539.352-.784l2.16-2.256-2.016-2.096c-.235-.245-.352-.507-.352-.784 0-.299.11-.555.328-.768.219-.213.472-.32.76-.32.299 0 .57.128.816.384l1.92 2.048 1.936-2.048c.245-.256.517-.384.816-.384.288 0 .541.107.76.32.219.213.328.47.328.768 0 .277-.117.539-.352.784l-2.032 2.096 2.16 2.256zm19.104 0c.235.245.352.512.352.8 0 .288-.11.541-.328.76a1.043 1.043 0 0 1-.76.328c-.288 0-.555-.128-.8-.384l-2.08-2.24-2.064 2.24c-.245.256-.512.384-.8.384a1.06 1.06 0 0 1-.776-.328 1.06 1.06 0 0 1-.328-.776c0-.277.117-.539.352-.784l2.16-2.256-2.016-2.096c-.235-.245-.352-.507-.352-.784 0-.299.11-.555.328-.768.219-.213.472-.32.76-.32.299 0 .57.128.816.384l1.92 2.048 1.936-2.048c.245-.256.517-.384.816-.384.288 0 .541.107.76.32.219.213.328.47.328.768 0 .277-.117.539-.352.784l-2.032 2.096 2.16 2.256zm19.104 0c.235.245.352.512.352.8 0 .288-.11.541-.328.76a1.043 1.043 0 0 1-.76.328c-.288 0-.555-.128-.8-.384l-2.08-2.24-2.064 2.24c-.245.256-.512.384-.8.384a1.06 1.06 0 0 1-.776-.328 1.06 1.06 0 0 1-.328-.776c0-.277.117-.539.352-.784l2.16-2.256-2.016-2.096c-.235-.245-.352-.507-.352-.784 0-.299.11-.555.328-.768.219-.213.472-.32.76-.32.299 0 .57.128.816.384l1.92 2.048 1.936-2.048c.245-.256.517-.384.816-.384.288 0 .541.107.76.32.219.213.328.47.328.768 0 .277-.117.539-.352.784l-2.032 2.096 2.16 2.256zm19.104 0c.235.245.352.512.352.8 0 .288-.11.541-.328.76a1.043 1.043 0 0 1-.76.328c-.288 0-.555-.128-.8-.384l-2.08-2.24-2.064 2.24c-.245.256-.512.384-.8.384a1.06 1.06 0 0 1-.776-.328 1.06 1.06 0 0 1-.328-.776c0-.277.117-.539.352-.784l2.16-2.256-2.016-2.096c-.235-.245-.352-.507-.352-.784 0-.299.11-.555.328-.768.219-.213.472-.32.76-.32.299 0 .57.128.816.384l1.92 2.048 1.936-2.048c.245-.256.517-.384.816-.384.288 0 .541.107.76.32.219.213.328.47.328.768 0 .277-.117.539-.352.784l-2.032 2.096 2.16 2.256zm-115.624 21c.235.245.352.512.352.8 0 .288-.11.541-.328.76a1.043 1.043 0 0 1-.76.328c-.288 0-.555-.128-.8-.384l-2.08-2.24-2.064 2.24c-.245.256-.512.384-.8.384a1.06 1.06 0 0 1-.776-.328 1.06 1.06 0 0 1-.328-.776c0-.277.117-.539.352-.784l2.16-2.256-2.016-2.096c-.235-.245-.352-.507-.352-.784 0-.299.11-.555.328-.768.219-.213.472-.32.76-.32.299 0 .57.128.816.384l1.92 2.048 1.936-2.048c.245-.256.517-.384.816-.384.288 0 .541.107.76.32.219.213.328.47.328.768 0 .277-.117.539-.352.784l-2.032 2.096 2.16 2.256zm19.104 0c.235.245.352.512.352.8 0 .288-.11.541-.328.76a1.043 1.043 0 0 1-.76.328c-.288 0-.555-.128-.8-.384l-2.08-2.24-2.064 2.24c-.245.256-.512.384-.8.384a1.06 1.06 0 0 1-.776-.328 1.06 1.06 0 0 1-.328-.776c0-.277.117-.539.352-.784l2.16-2.256-2.016-2.096c-.235-.245-.352-.507-.352-.784 0-.299.11-.555.328-.768.219-.213.472-.32.76-.32.299 0 .57.128.816.384l1.92 2.048 1.936-2.048c.245-.256.517-.384.816-.384.288 0 .541.107.76.32.219.213.328.47.328.768 0 .277-.117.539-.352.784l-2.032 2.096 2.16 2.256zm19.104 0c.235.245.352.512.352.8 0 .288-.11.541-.328.76a1.043 1.043 0 0 1-.76.328c-.288 0-.555-.128-.8-.384l-2.08-2.24-2.064 2.24c-.245.256-.512.384-.8.384a1.06 1.06 0 0 1-.776-.328 1.06 1.06 0 0 1-.328-.776c0-.277.117-.539.352-.784l2.16-2.256-2.016-2.096c-.235-.245-.352-.507-.352-.784 0-.299.11-.555.328-.768.219-.213.472-.32.76-.32.299 0 .57.128.816.384l1.92 2.048 1.936-2.048c.245-.256.517-.384.816-.384.288 0 .541.107.76.32.219.213.328.47.328.768 0 .277-.117.539-.352.784l-2.032 2.096 2.16 2.256zm19.104 0c.235.245.352.512.352.8 0 .288-.11.541-.328.76a1.043 1.043 0 0 1-.76.328c-.288 0-.555-.128-.8-.384l-2.08-2.24-2.064 2.24c-.245.256-.512.384-.8.384a1.06 1.06 0 0 1-.776-.328 1.06 1.06 0 0 1-.328-.776c0-.277.117-.539.352-.784l2.16-2.256-2.016-2.096c-.235-.245-.352-.507-.352-.784 0-.299.11-.555.328-.768.219-.213.472-.32.76-.32.299 0 .57.128.816.384l1.92 2.048 1.936-2.048c.245-.256.517-.384.816-.384.288 0 .541.107.76.32.219.213.328.47.328.768 0 .277-.117.539-.352.784l-2.032 2.096 2.16 2.256zm19.104 0c.235.245.352.512.352.8 0 .288-.11.541-.328.76a1.043 1.043 0 0 1-.76.328c-.288 0-.555-.128-.8-.384l-2.08-2.24-2.064 2.24c-.245.256-.512.384-.8.384a1.06 1.06 0 0 1-.776-.328 1.06 1.06 0 0 1-.328-.776c0-.277.117-.539.352-.784l2.16-2.256-2.016-2.096c-.235-.245-.352-.507-.352-.784 0-.299.11-.555.328-.768.219-.213.472-.32.76-.32.299 0 .57.128.816.384l1.92 2.048 1.936-2.048c.245-.256.517-.384.816-.384.288 0 .541.107.76.32.219.213.328.47.328.768 0 .277-.117.539-.352.784l-2.032 2.096 2.16 2.256zm19.104 0c.235.245.352.512.352.8 0 .288-.11.541-.328.76a1.043 1.043 0 0 1-.76.328c-.288 0-.555-.128-.8-.384l-2.08-2.24-2.064 2.24c-.245.256-.512.384-.8.384a1.06 1.06 0 0 1-.776-.328 1.06 1.06 0 0 1-.328-.776c0-.277.117-.539.352-.784l2.16-2.256-2.016-2.096c-.235-.245-.352-.507-.352-.784 0-.299.11-.555.328-.768.219-.213.472-.32.76-.32.299 0 .57.128.816.384l1.92 2.048 1.936-2.048c.245-.256.517-.384.816-.384.288 0 .541.107.76.32.219.213.328.47.328.768 0 .277-.117.539-.352.784l-2.032 2.096 2.16 2.256zm19.104 0c.235.245.352.512.352.8 0 .288-.11.541-.328.76a1.043 1.043 0 0 1-.76.328c-.288 0-.555-.128-.8-.384l-2.08-2.24-2.064 2.24c-.245.256-.512.384-.8.384a1.06 1.06 0 0 1-.776-.328 1.06 1.06 0 0 1-.328-.776c0-.277.117-.539.352-.784l2.16-2.256-2.016-2.096c-.235-.245-.352-.507-.352-.784 0-.299.11-.555.328-.768.219-.213.472-.32.76-.32.299 0 .57.128.816.384l1.92 2.048 1.936-2.048c.245-.256.517-.384.816-.384.288 0 .541.107.76.32.219.213.328.47.328.768 0 .277-.117.539-.352.784l-2.032 2.096 2.16 2.256zm-113.624 23c.235.245.352.512.352.8 0 .288-.11.541-.328.76a1.043 1.043 0 0 1-.76.328c-.288 0-.555-.128-.8-.384l-2.08-2.24-2.064 2.24c-.245.256-.512.384-.8.384a1.06 1.06 0 0 1-.776-.328 1.06 1.06 0 0 1-.328-.776c0-.277.117-.539.352-.784l2.16-2.256-2.016-2.096c-.235-.245-.352-.507-.352-.784 0-.299.11-.555.328-.768.219-.213.472-.32.76-.32.299 0 .57.128.816.384l1.92 2.048 1.936-2.048c.245-.256.517-.384.816-.384.288 0 .541.107.76.32.219.213.328.47.328.768 0 .277-.117.539-.352.784l-2.032 2.096 2.16 2.256zm19.104 0c.235.245.352.512.352.8 0 .288-.11.541-.328.76a1.043 1.043 0 0 1-.76.328c-.288 0-.555-.128-.8-.384l-2.08-2.24-2.064 2.24c-.245.256-.512.384-.8.384a1.06 1.06 0 0 1-.776-.328 1.06 1.06 0 0 1-.328-.776c0-.277.117-.539.352-.784l2.16-2.256-2.016-2.096c-.235-.245-.352-.507-.352-.784 0-.299.11-.555.328-.768.219-.213.472-.32.76-.32.299 0 .57.128.816.384l1.92 2.048 1.936-2.048c.245-.256.517-.384.816-.384.288 0 .541.107.76.32.219.213.328.47.328.768 0 .277-.117.539-.352.784l-2.032 2.096 2.16 2.256zm19.104 0c.235.245.352.512.352.8 0 .288-.11.541-.328.76a1.043 1.043 0 0 1-.76.328c-.288 0-.555-.128-.8-.384l-2.08-2.24-2.064 2.24c-.245.256-.512.384-.8.384a1.06 1.06 0 0 1-.776-.328 1.06 1.06 0 0 1-.328-.776c0-.277.117-.539.352-.784l2.16-2.256-2.016-2.096c-.235-.245-.352-.507-.352-.784 0-.299.11-.555.328-.768.219-.213.472-.32.76-.32.299 0 .57.128.816.384l1.92 2.048 1.936-2.048c.245-.256.517-.384.816-.384.288 0 .541.107.76.32.219.213.328.47.328.768 0 .277-.117.539-.352.784l-2.032 2.096 2.16 2.256zm19.104 0c.235.245.352.512.352.8 0 .288-.11.541-.328.76a1.043 1.043 0 0 1-.76.328c-.288 0-.555-.128-.8-.384l-2.08-2.24-2.064 2.24c-.245.256-.512.384-.8.384a1.06 1.06 0 0 1-.776-.328 1.06 1.06 0 0 1-.328-.776c0-.277.117-.539.352-.784l2.16-2.256-2.016-2.096c-.235-.245-.352-.507-.352-.784 0-.299.11-.555.328-.768.219-.213.472-.32.76-.32.299 0 .57.128.816.384l1.92 2.048 1.936-2.048c.245-.256.517-.384.816-.384.288 0 .541.107.76.32.219.213.328.47.328.768 0 .277-.117.539-.352.784l-2.032 2.096 2.16 2.256zm19.104 0c.235.245.352.512.352.8 0 .288-.11.541-.328.76a1.043 1.043 0 0 1-.76.328c-.288 0-.555-.128-.8-.384l-2.08-2.24-2.064 2.24c-.245.256-.512.384-.8.384a1.06 1.06 0 0 1-.776-.328 1.06 1.06 0 0 1-.328-.776c0-.277.117-.539.352-.784l2.16-2.256-2.016-2.096c-.235-.245-.352-.507-.352-.784 0-.299.11-.555.328-.768.219-.213.472-.32.76-.32.299 0 .57.128.816.384l1.92 2.048 1.936-2.048c.245-.256.517-.384.816-.384.288 0 .541.107.76.32.219.213.328.47.328.768 0 .277-.117.539-.352.784l-2.032 2.096 2.16 2.256zm19.104 0c.235.245.352.512.352.8 0 .288-.11.541-.328.76a1.043 1.043 0 0 1-.76.328c-.288 0-.555-.128-.8-.384l-2.08-2.24-2.064 2.24c-.245.256-.512.384-.8.384a1.06 1.06 0 0 1-.776-.328 1.06 1.06 0 0 1-.328-.776c0-.277.117-.539.352-.784l2.16-2.256-2.016-2.096c-.235-.245-.352-.507-.352-.784 0-.299.11-.555.328-.768.219-.213.472-.32.76-.32.299 0 .57.128.816.384l1.92 2.048 1.936-2.048c.245-.256.517-.384.816-.384.288 0 .541.107.76.32.219.213.328.47.328.768 0 .277-.117.539-.352.784l-2.032 2.096 2.16 2.256z"/><path d="M8.435 73a1.5 1.5 0 0 1 0-3h132.233a1.5 1.5 0 0 1 0 3H8.435zm0 22a1.5 1.5 0 0 1 0-3h132.233a1.5 1.5 0 0 1 0 3H8.435zm0 20a1.5 1.5 0 0 1 0-3h132.233a1.5 1.5 0 0 1 0 3H8.435zm28.444-78.598a1.5 1.5 0 1 1-1.758-2.431L77.683 3.217a1.5 1.5 0 1 1 1.757 2.431L36.879 36.402z" fill-rule="nonzero"/><circle cx="76" cy="7" r="7"/><path d="M117.247 34.816a1.5 1.5 0 0 1-1.837 2.372L74.082 5.186a1.5 1.5 0 1 1 1.836-2.372l41.329 32.002z" fill-rule="nonzero"/></g></svg>