<svg width="122" height="43" viewBox="0 0 122 43" xmlns="http://www.w3.org/2000/svg"><title>business-owners</title><g fill="#0012B9" fill-rule="evenodd"><path d="M13.195 38.494l-3.733-.72-1.135 2.967 2.454 1.69 3.368-3.957a2.365 2.365 0 0 1-.506.062c-.148 0-.297-.013-.448-.042zm9.751-30.343a4.074 4.074 0 0 0 4.075-4.076 4.074 4.074 0 1 0-8.15 0 4.075 4.075 0 0 0 4.075 4.076zm1.087 11.358c.095.186.22.356.365.501l5.898 5.173 2.06-2.093-5.045-5.592-3.278-6.47c-.397-.907-1.442-1.602-3.11-2.07-2.249-.63-3.4-.09-3.888.288-.048.04-6.962 6.59-6.962 6.59a1.915 1.915 0 0 0-.56 1.015l-.077.465h-.004l-.856 5.24c-.835-.148-2.037.474-2.218 1.413l-.134.697-2.837-.546a1.52 1.52 0 0 0-1.779 1.204l-.904 4.704 3.556.685.222-1.153a.357.357 0 0 1 .42-.284l1.618.312a.36.36 0 0 1 .284.418l-.222 1.154 3.35.644.222-1.152a.362.362 0 0 1 .152-.23.35.35 0 0 1 .267-.054l1.62.312c.193.037.32.225.284.42l-.223 1.151 3.556.684.905-4.702a1.518 1.518 0 0 0-1.204-1.78l-2.838-.546.136-.698c.22-1.34-.74-1.643-.896-1.756l1.237-5.252 2.155-2.043-.72 3.307c-.1.41-.384 1.76-.384 1.76-.061.275-.242 4.061-.242 4.061l1.713.33a2.375 2.375 0 0 1 1.882 2.775l-1.375 7.137 1.218-1.767c.22-.318.348-.69.37-1.076l.451-7.27 3.678 8.446 3.77 8.947 2.945-1.022-2.716-9.4a2.894 2.894 0 0 0-.06-.152l-3.991-9.162a2.335 2.335 0 0 0-.217-.38l1.21-5.547 1.196 2.364zm-12.068 5.537l-.134.698-4.762-.917.134-.697c.092-.483.548-.779 1.034-.724l.196.03-.173 1.056 3.26.633.2-.852c.038.027.36.237.245.773zm-6.847 5l-.426 2.211.915.176.426-2.21-.915-.177zm5.673 1.091l-.426 2.21.915.177.426-2.21-.915-.177zm1.125 2.874a.36.36 0 0 1-.352.29c-.022 0-1.686-.316-1.686-.316a.366.366 0 0 1-.23-.15.367.367 0 0 1-.055-.27l.176-.918-3.348-.645-.177.918a.36.36 0 0 1-.352.29c-.022 0-1.687-.315-1.687-.315a.365.365 0 0 1-.229-.152.364.364 0 0 1-.055-.268l.177-.92-3.555-.683-.515 2.674a1.518 1.518 0 0 0 1.204 1.777l12.123 2.336a1.523 1.523 0 0 0 1.78-1.206l.514-2.675-3.556-.684-.177.917z" fill-rule="nonzero"/><circle cx="82" cy="15" r="3"/><path d="M120.71 26.605c-.333-1.198-1.039-2.804-2.487-3.813-6.664-4.08-15.447-5.133-16.547-5.241a75.956 75.956 0 0 1-2.868-.376S89.587 9.46 80.84 6.546c-8.746-2.915-26.751-.843-28.303-.686-3.678.353-13.684 8.341-13.684 8.341s-10.919 2.13-11.76 2.935c-.838.805-1.12 4.741-1.091 8.401.028 3.661.633 8.686.633 8.686l9.081.588a10.54 10.54 0 0 1-.095-1.34c0-5.409 4.066-9.796 9.084-9.796s9.084 4.531 9.084 9.94c0 1.013-.141 1.965-.406 3.047H94.65c-.266-1.082-.408-2.037-.408-3.048 0-5.408 4.067-9.866 9.085-9.866 5.017 0 9.084 4.35 9.084 9.759 0 .856-.11 1.66-.303 2.453 1.811.083 8.45.347 8.962-.03.593-.437-.026-8.126-.36-9.325zm-68.393-9.987s-.104-5.97 1.388-7.442c1.494-1.471 11.209-1.094 11.676-1.132.469-.036.908.518.945 1.042.035.526.544 8.433.544 8.433l-14.553-.9zm35.216 1.628l-16.936-.454S68.968 9.011 68.9 8.656c-.068-.356.237-.61.755-.61.517-.002 7.424.672 10.962 2.034 4.813 1.853 9.02 5.305 9.02 5.305l-2.104 2.861zm15.857 7.138c-4.199 0-7.615 3.556-7.615 7.925s3.416 7.925 7.615 7.925c4.198 0 7.614-3.556 7.614-7.925s-3.416-7.925-7.614-7.925zm0 11.778c-2.044 0-3.705-1.729-3.705-3.855s1.661-3.857 3.705-3.857c2.043 0 3.704 1.73 3.704 3.857 0 2.126-1.663 3.855-3.704 3.855zM44.71 25.384c-4.198 0-7.614 3.556-7.614 7.925s3.416 7.925 7.615 7.925 7.616-3.556 7.616-7.925-3.417-7.925-7.616-7.925zm0 11.778c-2.043 0-3.704-1.729-3.704-3.855s1.661-3.857 3.705-3.857c2.043 0 3.704 1.73 3.704 3.857 0 2.126-1.66 3.855-3.704 3.855z" fill-rule="nonzero"/></g></svg>