<svg width="23" height="23" viewBox="0 0 23 23" xmlns="http://www.w3.org/2000/svg" xmlns:xlink="http://www.w3.org/1999/xlink"><title>check-mark</title><defs><path d="M8.795 13.665a.308.308 0 0 0 .18.065.254.254 0 0 0 .181-.078l6.2-6.199a.25.25 0 0 0 0-.36.25.25 0 0 0-.361 0l-6.02 6.018-2.925-2.926a.25.25 0 0 0-.36 0 .25.25 0 0 0 0 .361l3.105 3.12z" id="a"/></defs><g transform="translate(1 1)" fill="none" fill-rule="evenodd"><g fill-rule="nonzero"><use fill="#0012B9" fill-rule="evenodd" xlink:href="#a"/><path stroke="#0012B9" d="M8.97 13.132l-.167.167a.246.246 0 0 1 .173-.07c.052 0 .09.015.12.036l.054.047-.18-.18zm.006-.728l5.665-5.665a.749.749 0 0 1 1.068 0 .749.749 0 0 1 0 1.068l-6.2 6.199a.754.754 0 0 1-.533.224.804.804 0 0 1-.48-.165l-.055-.047L5.336 10.9a.749.749 0 0 1 0-1.068.749.749 0 0 1 1.068 0l2.572 2.572z"/></g><circle stroke="#0012B9" stroke-width="2" cx="10.5" cy="10.5" r="10.5"/></g></svg>