<svg width="139" height="51" viewBox="0 0 139 51" xmlns="http://www.w3.org/2000/svg"><title>reimbursement</title><g transform="translate(0 1)" fill="none" fill-rule="evenodd"><path d="M130 35.727V10.273c0-.7-.579-1.273-1.286-1.273H86.286C85.579 9 85 9.573 85 10.273v25.454c0 .7.579 1.273 1.286 1.273h42.428c.707 0 1.286-.573 1.286-1.273zm-22.5-4.454c-4.629 0-8.357-3.691-8.357-8.273s3.728-8.273 8.357-8.273 8.357 3.691 8.357 8.273-3.728 8.273-8.357 8.273z" fill="#0012B9" fill-rule="nonzero"/><path d="M92 40.714c0 .707.57 1.286 1.265 1.286h40.47A1.28 1.28 0 0 0 135 40.714V16.286A1.28 1.28 0 0 0 133.735 15a1.28 1.28 0 0 0-1.264 1.286v23.143H93.265A1.28 1.28 0 0 0 92 40.714z" fill="#0012B9" fill-rule="nonzero"/><path d="M137.735 19a1.28 1.28 0 0 0-1.264 1.286v23.143H97.265A1.28 1.28 0 0 0 96 44.714c0 .707.57 1.286 1.265 1.286h40.47A1.28 1.28 0 0 0 139 44.714V20.286A1.28 1.28 0 0 0 137.735 19z" fill="#0012B9" fill-rule="nonzero"/><path d="M111 24.53c0 .742-.269 1.368-.806 1.877-.537.509-1.26.837-2.17.983v.785c0 .247-.08.447-.24.598-.16.151-.37.227-.632.227a.887.887 0 0 1-.624-.227.774.774 0 0 1-.247-.598v-.743a6.741 6.741 0 0 1-1.546-.317 5.266 5.266 0 0 1-1.314-.632.854.854 0 0 1-.327-.31.893.893 0 0 1-.094-.433.9.9 0 0 1 .225-.606c.15-.174.322-.261.515-.261.184 0 .412.073.683.22.445.248.869.429 1.27.544.402.114.82.171 1.256.171.58 0 1.026-.103 1.336-.31a.99.99 0 0 0 .465-.873c0-.229-.09-.417-.27-.564-.178-.146-.398-.261-.66-.344a24.557 24.557 0 0 0-1.132-.316 15.821 15.821 0 0 1-1.771-.523 2.98 2.98 0 0 1-1.198-.825c-.334-.376-.501-.88-.501-1.513 0-.743.278-1.38.835-1.912.556-.532 1.285-.872 2.185-1.018v-.785c0-.247.082-.447.247-.598a.887.887 0 0 1 .624-.227c.261 0 .472.076.631.227.16.151.24.35.24.598v.757c.871.11 1.69.422 2.454.935.145.092.249.198.312.317.063.12.094.261.094.426a.9.9 0 0 1-.225.606c-.15.174-.322.261-.515.261-.107 0-.206-.014-.298-.041a2.12 2.12 0 0 1-.385-.18 6.806 6.806 0 0 0-1.067-.536c-.314-.119-.7-.178-1.154-.178-.523 0-.941.11-1.256.33-.314.22-.472.513-.472.88 0 .257.092.466.276.626.184.16.416.287.697.378.28.092.673.198 1.176.317a14.23 14.23 0 0 1 1.735.502c.45.17.837.44 1.162.812.324.37.486.868.486 1.492z" fill="#0012B9"/><path d="M39.369 0H8.436C7.504 0 6.75.753 6.75 1.682v4.935H1.687C.755 6.617 0 7.37 0 8.299v39.983c.011.659.407 1.25 1.012 1.514l.675.168a1.69 1.69 0 0 0 1.125-.449L6.75 45.87l4.05 3.645a1.69 1.69 0 0 0 2.249 0l4.106-3.588 4.049 3.644a1.69 1.69 0 0 0 2.25 0l4.05-3.644 3.936 3.644c.493.44 1.199.552 1.804.287.606-.266 1-.86 1.008-1.52v-8.972l3.937 3.588a1.69 1.69 0 0 0 1.125.45l.675-.17A1.682 1.682 0 0 0 41 41.722V1.682C41 .775 40.279.03 39.369 0zm-1.687 37.852l-2.25-2.075a1.69 1.69 0 0 0-1.125-.449V8.3c0-.929-.755-1.682-1.687-1.682H10.123V3.365h27.559v34.487z" fill="#0012B9" fill-rule="nonzero"/><rect fill="#FFF" x="4" y="16" width="25" height="3" rx="1.5"/><rect fill="#FFF" x="4" y="23" width="25" height="3" rx="1.5"/><rect fill="#FFF" x="4" y="31" width="14" height="3" rx="1.5"/><path d="M67.006 19.204a.69.69 0 0 0 0 1.001l6.435 6.075H55.75c-.42 0-.751.313-.751.71 0 .396.332.71.752.71H73.44l-6.435 6.095a.69.69 0 0 0 0 1.001.794.794 0 0 0 1.062 0l7.716-7.305a.69.69 0 0 0 0-1.002l-7.716-7.285a.794.794 0 0 0-1.062 0z" stroke="#0012B9" stroke-width="2" fill="#0012B9" fill-rule="nonzero"/><path d="M63.994 15.796a.69.69 0 0 0 0-1.001L57.559 8.72h17.69c.42 0 .751-.313.751-.71 0-.396-.332-.71-.752-.71H57.56l6.435-6.095a.69.69 0 0 0 0-1.001.794.794 0 0 0-1.062 0l-7.716 7.305a.69.69 0 0 0 0 1.002l7.716 7.285a.794.794 0 0 0 1.062 0z" stroke="#0012B9" stroke-width="2" fill="#0012B9" fill-rule="nonzero"/></g></svg>