<svg width="303" height="51" viewBox="0 0 303 51" xmlns="http://www.w3.org/2000/svg"><title>ride-receipts-logo</title><defs><linearGradient x1="50.009%" y1=".113%" x2="50.009%" y2="100.043%" id="a"><stop stop-color="#D700D0" offset="0%"/><stop stop-color="#0012B9" offset="99.87%"/></linearGradient><linearGradient x1="49.976%" y1=".019%" x2="49.976%" y2="99.952%" id="b"><stop stop-color="#D700D0" offset="0%"/><stop stop-color="#0012B9" offset="99.87%"/></linearGradient></defs><g fill="none"><g transform="translate(58.934 3.852)" fill="#000"><path d="M.192 6.356c0-2.055 1.153-3.339 3.267-3.339h7.495c6.598 0 10.634 2.953 10.634 9.63 0 4.686-3.523 7.383-7.88 8.089l7.24 7.768c.576.642.832 1.284.832 1.861 0 1.67-1.345 3.275-3.203 3.275-.769 0-1.793-.321-2.498-1.092l-9.48-11.491h-.065V30.3c0 2.119-1.345 3.339-3.203 3.339-1.858 0-3.203-1.22-3.203-3.339V6.356h.064zm6.406 10.143h4.42c2.37 0 3.972-1.413 3.972-3.788 0-2.44-1.602-3.788-3.972-3.788h-4.42V16.5zM30.172 4.622c0 1.926-1.538 3.531-3.46 3.531-1.857 0-3.459-1.669-3.459-3.53 0-1.734 1.602-3.403 3.46-3.403 1.857 0 3.459 1.605 3.459 3.402zm-6.534 9.245c0-2.055 1.281-3.403 3.075-3.403 1.793 0 3.075 1.348 3.075 3.403V30.3c0 2.055-1.282 3.403-3.075 3.403-1.794 0-3.075-1.348-3.075-3.403V13.867zM54.13 30.3c0 2.055-1.281 3.403-3.075 3.403-1.73 0-2.69-.963-3.075-2.568-1.153 1.862-3.523 2.824-5.637 2.824-6.214 0-10.121-5.777-10.121-11.555 0-5.97 3.267-12.198 9.865-12.198 2.114 0 4.228.707 5.83 2.119V3.98c0-2.054 1.28-3.402 3.074-3.402 1.794 0 3.075 1.348 3.075 3.402v26.321h.064zM43.176 15.857c-3.203 0-4.805 3.402-4.805 6.291 0 2.889 1.602 6.227 4.805 6.227 3.395 0 4.804-3.402 4.804-6.42 0-3.017-1.473-6.098-4.804-6.098zm19.41 8.281c.448 3.018 2.947 4.43 5.83 4.43 3.138 0 5.316-2.504 6.982-2.504 1.345 0 2.498 1.348 2.498 2.632 0 2.632-5.445 5.2-9.993 5.2-6.919 0-11.53-5.071-11.53-11.812 0-6.227 4.547-11.94 11.017-11.94 6.662 0 11.018 6.098 11.018 11.17 0 1.861-.832 2.76-2.69 2.76H62.586v.064zm9.673-4.108c-.32-2.697-2.05-4.687-4.933-4.687-2.754 0-4.548 2.119-4.868 4.687h9.8zM92.18 6.356c0-2.055 1.153-3.339 3.267-3.339h7.495c6.598 0 10.634 2.953 10.634 9.63 0 4.686-3.523 7.383-7.88 8.089l7.24 7.768c.576.642.832 1.284.832 1.861 0 1.67-1.345 3.275-3.203 3.275-.769 0-1.793-.321-2.498-1.092L98.65 21.121h-.064v9.244c0 2.119-1.345 3.339-3.203 3.339-1.858 0-3.203-1.22-3.203-3.339V6.355zm6.342 10.143h4.42c2.37 0 3.972-1.413 3.972-3.788 0-2.44-1.602-3.788-3.972-3.788h-4.42V16.5zm22.1 7.64c.449 3.017 2.947 4.429 5.83 4.429 3.139 0 5.317-2.504 6.982-2.504 1.346 0 2.499 1.348 2.499 2.632 0 2.632-5.445 5.2-9.994 5.2-6.918 0-11.53-5.071-11.53-11.812 0-6.227 4.548-11.94 11.018-11.94 6.662 0 11.018 6.098 11.018 11.17 0 1.861-.833 2.76-2.69 2.76h-13.133v.064zm9.673-4.11c-.32-2.696-2.05-4.686-4.932-4.686-2.755 0-4.548 2.119-4.869 4.687h9.801zm23.574-3.017c-1.537 0-2.882-1.22-4.868-1.22-3.524 0-5.19 3.146-5.19 6.292 0 3.017 1.859 6.227 5.19 6.227 1.537 0 3.843-1.284 4.548-1.284 1.473 0 2.626 1.22 2.626 2.696 0 3.146-5.317 4.237-7.495 4.237-6.598 0-11.018-5.456-11.018-11.812 0-6.227 4.548-11.94 11.018-11.94 2.435 0 7.495.898 7.495 3.915 0 1.22-.897 2.89-2.306 2.89zm9.417 7.126c.448 3.018 2.947 4.43 5.83 4.43 3.138 0 5.316-2.504 6.982-2.504 1.345 0 2.498 1.348 2.498 2.632 0 2.632-5.445 5.2-9.993 5.2-6.919 0-11.53-5.071-11.53-11.812 0-6.227 4.547-11.94 11.017-11.94 6.662 0 11.019 6.098 11.019 11.17 0 1.861-.833 2.76-2.691 2.76h-13.132v.064zm9.609-4.108c-.32-2.697-2.05-4.687-4.933-4.687-2.754 0-4.548 2.119-4.868 4.687h9.8zm14.797-15.408c0 1.926-1.537 3.531-3.459 3.531-1.857 0-3.459-1.669-3.459-3.53 0-1.734 1.602-3.403 3.46-3.403 1.857 0 3.458 1.605 3.458 3.402zm-6.534 9.245c0-2.055 1.282-3.403 3.075-3.403 1.794 0 3.075 1.348 3.075 3.403V30.3c0 2.055-1.281 3.403-3.075 3.403-1.793 0-3.075-1.348-3.075-3.403V13.867zm9.545 0c0-2.055 1.281-3.403 3.075-3.403 1.73 0 2.69.963 3.075 2.568 1.153-1.862 3.523-2.825 5.83-2.825 6.597 0 9.864 6.228 9.864 12.198 0 5.842-3.907 11.555-10.12 11.555-1.923 0-4.037-.706-5.638-2.118v7.511c0 2.054-1.281 3.403-3.075 3.403-1.794 0-3.075-1.349-3.075-3.403V13.867h.064zm10.954 14.444c3.203 0 4.805-3.338 4.805-6.227 0-2.889-1.602-6.291-4.805-6.291-3.267 0-4.804 3.081-4.804 6.098 0 3.018 1.41 6.42 4.804 6.42zm14.99-12.197h-1.345c-1.666 0-2.69-1.028-2.69-2.697 0-1.54 1.153-2.696 2.69-2.696h1.345v-3.66c0-2.054 1.281-3.402 3.075-3.402 1.794 0 3.075 1.348 3.075 3.403v3.659h1.73c1.601 0 2.946.706 2.946 2.696 0 1.926-1.345 2.697-2.947 2.697h-1.73V30.3c0 2.055-1.28 3.403-3.074 3.403-1.794 0-3.075-1.348-3.075-3.403V16.114zm24.086 1.284c-1.153 0-3.523-1.798-5.509-1.798-1.089 0-2.114.514-2.114 1.733 0 2.89 10.634 2.44 10.634 9.437 0 4.109-3.459 7.255-8.712 7.255-3.459 0-8.584-1.99-8.584-4.75 0-.964.961-2.761 2.627-2.761 2.37 0 3.459 2.118 6.342 2.118 1.857 0 2.434-.578 2.434-1.733 0-2.825-10.634-2.376-10.634-9.437 0-4.302 3.46-7.19 8.328-7.19 3.01 0 7.687 1.412 7.687 4.43 0 1.347-1.09 2.696-2.499 2.696z"/></g><path fill="#FFF" d="M13.9008457 39.417284L21.3957717 35.9506173 29.2750529 39.417284 37.0902748 35.9506173 45.0976744 39.417284 45.0976744 2.88888889 13.9008457 2.88888889z"/><path d="M11.659 42.948V.578h35.68V42.82L37.09 38.326l-7.815 3.53-7.88-3.466-9.736 4.558zm9.673-9.501l7.943 3.53 7.815-3.53 5.766 2.504V5.136H16.143v30.75l5.189-2.44z" fill="url(#a)"/><g transform="translate(0 8.346)"><path fill="#FFF" d="M2.75454545 39.0320988L10.2494715 35.5012346 18.1287526 39.0320988 25.9439746 35.5012346 33.9513742 39.0320988 33.9513742 2.43950617 2.75454545 2.43950617z"/><path d="M.512 42.563V.193h35.681v42.242L25.944 37.94l-7.815 3.53-7.88-3.53-9.737 4.622zm9.673-9.501l7.944 3.53 7.815-3.53 5.765 2.503V4.686H4.997v30.751l5.188-2.375z" fill="url(#b)"/></g><path d="M26.777 24.138H9.865c-1.217 0-2.242-1.027-2.242-2.247s1.025-2.247 2.242-2.247h16.912c1.217 0 2.242 1.028 2.242 2.247a2.23 2.23 0 0 1-2.242 2.247z" fill="#A106C8"/><path d="M26.777 33.768H9.865c-1.217 0-2.242-1.027-2.242-2.247s1.025-2.247 2.242-2.247h16.912c1.217 0 2.242 1.027 2.242 2.247a2.23 2.23 0 0 1-2.242 2.247z" fill="#6B09C4"/></g></svg>